# Blender 4.1.0
# www.blender.org
mtllib untitled.mtl
o Circle.001
v -1.545653 1.760082 -0.778443
v -1.545653 1.760082 -1.549241
v -1.962378 1.760082 -1.426879
v -2.246796 1.760082 -1.098644
v -2.308606 1.760082 -0.668747
v -2.128183 1.760082 -0.273677
v -1.762812 1.760082 -0.038867
v -1.328494 1.760082 -0.038867
v -0.963123 1.760082 -0.273677
v -0.782701 1.760082 -0.668747
v -0.844511 1.760082 -1.098644
v -1.128928 1.760082 -1.426879
v -1.545653 1.374683 -0.778443
v -1.545653 1.374683 -1.549241
v -1.962378 1.374683 -1.426879
v -2.246796 1.374683 -1.098644
v -2.308606 1.374683 -0.668747
v -2.128183 1.374683 -0.273677
v -1.762812 1.374683 -0.038867
v -1.328494 1.374683 -0.038867
v -0.963123 1.374683 -0.273677
v -0.782701 1.374683 -0.668747
v -0.844511 1.374683 -1.098644
v -1.128928 1.374683 -1.426879
vn -0.0000 1.0000 -0.0000
vn -0.0000 -1.0000 -0.0000
vn -0.2817 -0.0000 -0.9595
vn -0.7557 -0.0000 -0.6549
vn -0.9898 -0.0000 -0.1423
vn -0.9096 -0.0000 0.4154
vn -0.5406 -0.0000 0.8413
vn -0.0000 -0.0000 1.0000
vn 0.5406 -0.0000 0.8413
vn 0.9096 -0.0000 0.4154
vn 0.9898 -0.0000 -0.1423
vn 0.7557 -0.0000 -0.6549
vn 0.2817 -0.0000 -0.9595
vt 0.500000 0.500000
vt 0.500000 1.000000
vt 0.229680 0.920627
vt 0.045184 0.707708
vt 0.005089 0.428843
vt 0.122125 0.172570
vt 0.359134 0.020254
vt 0.640866 0.020254
vt 0.877875 0.172570
vt 0.994911 0.428843
vt 0.954816 0.707708
vt 0.770320 0.920627
s 0
usemtl Material.001
f 1/1/1 2/2/1 3/3/1
f 1/1/1 3/3/1 4/4/1
f 1/1/1 4/4/1 5/5/1
f 1/1/1 5/5/1 6/6/1
f 1/1/1 6/6/1 7/7/1
f 1/1/1 7/7/1 8/8/1
f 1/1/1 8/8/1 9/9/1
f 1/1/1 9/9/1 10/10/1
f 1/1/1 10/10/1 11/11/1
f 1/1/1 11/11/1 12/12/1
f 1/1/1 12/12/1 2/2/1
f 13/1/2 15/3/2 14/2/2
f 13/1/2 16/4/2 15/3/2
f 13/1/2 17/5/2 16/4/2
f 13/1/2 18/6/2 17/5/2
f 13/1/2 19/7/2 18/6/2
f 13/1/2 20/8/2 19/7/2
f 13/1/2 21/9/2 20/8/2
f 13/1/2 22/10/2 21/9/2
f 13/1/2 23/11/2 22/10/2
f 13/1/2 24/12/2 23/11/2
f 13/1/2 14/2/2 24/12/2
f 3/3/3 2/2/3 14/2/3 15/3/3
f 4/4/4 3/3/4 15/3/4 16/4/4
f 5/5/5 4/4/5 16/4/5 17/5/5
f 6/6/6 5/5/6 17/5/6 18/6/6
f 7/7/7 6/6/7 18/6/7 19/7/7
f 8/8/8 7/7/8 19/7/8 20/8/8
f 9/9/9 8/8/9 20/8/9 21/9/9
f 10/10/10 9/9/10 21/9/10 22/10/10
f 11/11/11 10/10/11 22/10/11 23/11/11
f 12/12/12 11/11/12 23/11/12 24/12/12
f 2/2/13 12/12/13 24/12/13 14/2/13
